<?xml version="1.0" standalone="no"?>
<!DOCTYPE svg PUBLIC "-//W3C//DTD SVG 20010904//EN"
 "http://www.w3.org/TR/2001/REC-SVG-20010904/DTD/svg10.dtd">
<svg version="1.0" xmlns="http://www.w3.org/2000/svg"
 width="115.000000pt" height="33.000000pt" viewBox="0 0 115.000000 33.000000"
 preserveAspectRatio="xMidYMid meet">

<g transform="translate(0.000000,33.000000) scale(0.100000,-0.100000)"
fill="#000000" stroke="none">
<path d="M463 303 c-4 -10 -21 -62 -39 -118 l-31 -100 40 -12 c33 -10 42 -9
54 3 27 27 83 6 83 -31 0 -15 70 -39 81 -27 14 15 70 215 65 229 -4 9 -13 12
-25 8 -10 -3 -23 1 -30 9 -6 8 -21 12 -31 9 -12 -3 -20 0 -20 7 0 8 -8 10 -24
6 -16 -4 -26 -1 -30 10 -4 10 -13 13 -25 9 -11 -3 -22 -1 -26 5 -10 16 -35 12
-42 -7z m163 -106 l11 -32 18 40 c28 61 31 18 5 -63 -26 -78 -44 -102 -62 -84
-9 9 -9 12 0 12 23 0 30 43 16 90 -24 78 -13 110 12 37z m-40 10 c8 -34 1
-102 -11 -102 -5 0 -11 24 -13 53 -2 37 -7 52 -18 52 -10 0 -14 -14 -14 -55 0
-30 -4 -55 -10 -55 -5 0 -10 25 -10 55 0 42 -3 55 -15 55 -11 0 -15 -12 -15
-49 0 -28 -4 -53 -10 -56 -6 -4 -10 18 -10 59 l0 66 60 0 c54 0 60 -2 66 -23z"/>
</g>
</svg>
